<svg width="160" height="46" viewBox="0 0 160 46" fill="none" xmlns="http://www.w3.org/2000/svg">
<path d="M36.7229 33.8643C36.1088 34.945 35.3842 35.9619 34.5589 36.8977L34.5811 36.9198L33.8147 37.6886C30.403 41.1199 25.8615 43.0112 21.0252 43.0112C16.2086 43.0112 11.6793 41.1347 8.27253 37.7279C4.86576 34.3211 2.98921 29.7919 2.98921 24.9752C2.98921 24.6191 2.99904 24.258 3.02114 23.8994C3.0236 23.8503 3.02606 23.8011 3.03097 23.7496V23.7348C3.03343 23.7029 3.03588 23.6685 3.03834 23.6366V23.6194C3.04325 23.5457 3.05062 23.4696 3.05799 23.3959C3.0629 23.3345 3.06781 23.2706 3.07518 23.2043C3.08501 23.1085 3.09483 23.0102 3.10466 22.9145C3.11202 22.858 3.11694 22.7941 3.12676 22.7327C3.13659 22.6541 3.14641 22.5632 3.15869 22.4748C3.16606 22.4257 3.17343 22.3765 3.1808 22.3274C3.19062 22.2464 3.20536 22.1555 3.2201 22.0671C3.22747 22.0204 3.23729 21.9664 3.24466 21.9148C3.25203 21.8706 3.2594 21.8263 3.26922 21.7821C3.27905 21.7256 3.29133 21.6593 3.30361 21.5955C3.31343 21.539 3.32572 21.4776 3.338 21.4162C3.35273 21.3449 3.36501 21.2762 3.38221 21.2025C3.48537 20.7112 3.61309 20.2175 3.75801 19.7361L3.76292 19.7238C3.78012 19.66 3.79976 19.5961 3.82187 19.5347C3.83906 19.4807 3.85626 19.4266 3.87345 19.3701C3.97661 19.0557 4.0896 18.7364 4.20995 18.4294C4.22715 18.3876 4.24434 18.341 4.26153 18.2968C4.28118 18.2501 4.29838 18.201 4.32048 18.1494C4.34504 18.0904 4.37206 18.0241 4.39908 17.9578C4.41873 17.9087 4.44329 17.8522 4.46786 17.7982L4.47768 17.7736C4.51207 17.6999 4.544 17.6238 4.57838 17.5501C4.60295 17.4936 4.62751 17.4395 4.65453 17.3855C5.10893 16.403 5.66158 15.4549 6.29282 14.5658L6.39598 14.4258C6.46721 14.3275 6.53844 14.2293 6.61213 14.1359C6.64652 14.0917 6.68336 14.0426 6.7202 13.9959C6.7988 13.8928 6.87986 13.7921 6.95846 13.6938C7.00513 13.6373 7.05179 13.5759 7.10092 13.5194C7.14513 13.4654 7.19425 13.4089 7.24338 13.3499C7.29005 13.2935 7.34163 13.2345 7.39075 13.178C7.44724 13.1142 7.50374 13.0478 7.56023 12.984L5.44297 10.8643C1.93059 14.7279 0 19.7214 0 24.9728C0 30.5901 2.18603 35.8685 6.15773 39.8402C10.1294 43.8119 15.4078 45.998 21.0252 45.998C26.6598 45.998 31.9529 43.7972 35.9271 39.8034C37.0618 38.6637 38.0615 37.4012 38.904 36.0429L36.7229 33.8643Z" fill="#C8A35F"/>
<path d="M9.81255 36.1877C12.8067 39.1818 16.7906 40.8324 21.0252 40.8324C21.1578 40.8324 21.2904 40.83 21.4231 40.8275C21.4894 40.8275 21.5532 40.8251 21.6196 40.8226H21.6294C21.7276 40.8177 21.8234 40.8128 21.9217 40.8079C22.0003 40.8029 22.0764 40.798 22.155 40.7931C22.1943 40.7907 22.2287 40.7882 22.2606 40.7858L22.3147 40.7808C22.3859 40.7759 22.4571 40.7686 22.5308 40.7612C22.5947 40.7563 22.6536 40.7514 22.715 40.744C22.7592 40.7391 22.7985 40.7342 22.8354 40.7317L22.9164 40.7219C22.968 40.7145 23.0196 40.7096 23.0736 40.7022C23.2701 40.6777 23.4617 40.6507 23.6509 40.6187C23.7049 40.6089 23.7565 40.5991 23.808 40.5917L23.8252 40.5893C23.867 40.5819 23.9088 40.5745 23.9481 40.5672L23.9677 40.5622C24.0217 40.5524 24.0758 40.5426 24.1298 40.5303C24.2723 40.5033 24.4123 40.4738 24.5498 40.4419C24.6432 40.4222 24.7365 40.3977 24.8298 40.3756L24.8421 40.3731C24.8667 40.3682 24.8888 40.3633 24.9133 40.3559C24.9821 40.3387 25.0435 40.3215 25.1074 40.3068C25.1614 40.2921 25.213 40.2798 25.2621 40.265C25.3063 40.2528 25.3456 40.2429 25.3825 40.2306C25.4193 40.2208 25.4488 40.2135 25.4758 40.2036L25.4979 40.1963C25.5372 40.1864 25.5765 40.1742 25.6158 40.1619C25.6821 40.1422 25.7386 40.125 25.7951 40.1054C25.8418 40.0906 25.8811 40.0784 25.9253 40.0661C26.0579 40.0219 26.1906 39.9777 26.3208 39.931C26.3576 39.9187 26.392 39.9064 26.4264 39.8941L26.4534 39.8843C26.5001 39.8671 26.5418 39.8524 26.5811 39.8377C26.6474 39.8131 26.7039 39.791 26.7629 39.7689C26.812 39.7492 26.8562 39.7345 26.898 39.7173C26.979 39.6854 27.0527 39.6559 27.1264 39.624L27.3475 39.5306C27.4162 39.5012 27.485 39.4717 27.5489 39.4422C27.5882 39.425 27.6201 39.4103 27.6545 39.3955L27.6864 39.3808C27.7404 39.3562 27.7945 39.3292 27.8485 39.3047C28.1826 39.145 28.5117 38.9755 28.8286 38.7938C28.8629 38.7741 28.8949 38.7545 28.9293 38.7373C29.0029 38.6955 29.0766 38.6513 29.1479 38.6095L29.5114 38.386C29.671 38.2829 29.8381 38.1748 30.0174 38.052C30.0665 38.0176 30.1156 37.9832 30.1647 37.9488L30.1844 37.9341C30.2212 37.9071 30.2581 37.8825 30.2949 37.8555L30.3047 37.8481C30.3318 37.8285 30.3588 37.8088 30.3858 37.7892L30.3956 37.7818C30.4423 37.7499 30.4865 37.7155 30.5307 37.6811C30.5823 37.6443 30.6314 37.605 30.6781 37.5681C30.7125 37.5411 30.7395 37.519 30.769 37.4969L30.8033 37.4699C30.8525 37.4306 30.904 37.3913 30.9532 37.3495C31.0048 37.3078 31.0563 37.266 31.1055 37.2267L31.1177 37.2169C31.2135 37.1383 31.3069 37.0572 31.4027 36.9762C31.4321 36.9516 31.4592 36.927 31.4886 36.9L29.3689 34.7779C27.0478 36.7576 24.1028 37.8408 21.0325 37.8408C13.939 37.8408 8.16688 32.0686 8.16688 24.9751C8.16688 21.5167 9.52026 18.2721 11.974 15.838C13.126 14.6958 14.5064 13.7698 15.9973 13.1337L13.7474 10.8838C12.313 11.628 11.0038 12.5835 9.85185 13.7281C6.8307 16.7271 5.16785 20.7185 5.16785 24.9726C5.16785 29.2096 6.81842 33.1911 9.81255 36.1877Z" fill="white"/>
<path d="M39.0195 21.0252C39.0195 15.4078 36.8335 10.1294 32.8618 6.15773C28.8901 2.18603 23.6092 0 17.9918 0C12.3573 0 7.06413 2.19831 3.09243 6.19457C1.95765 7.3318 0.957975 8.59675 0.113037 9.95504L2.29661 12.1386C2.91067 11.0579 3.63525 10.041 4.46054 9.10519L4.43843 9.08308L5.20477 8.31429C8.614 4.88296 13.158 2.99167 17.9943 2.99167C22.8109 2.99167 27.3402 4.86822 30.747 8.27499C34.1537 11.6818 36.0303 16.2086 36.0303 21.0277C36.0303 21.3838 36.0204 21.7473 35.9983 22.1035C35.9959 22.1501 35.9934 22.2017 35.9885 22.2533C35.9861 22.2902 35.9836 22.327 35.9811 22.3638V22.381C35.9762 22.4547 35.9689 22.5309 35.9615 22.6045C35.9566 22.666 35.9517 22.7323 35.9443 22.7986C35.9345 22.8919 35.9247 22.9902 35.9148 23.0884C35.9075 23.1449 35.9026 23.2063 35.8927 23.2702C35.8829 23.3488 35.8731 23.4372 35.8608 23.5281C35.8534 23.5772 35.8461 23.6263 35.8387 23.673C35.8289 23.7565 35.8141 23.8449 35.7994 23.9358C35.792 23.9825 35.7822 24.0365 35.7748 24.0881C35.7675 24.1323 35.7601 24.1765 35.7503 24.2207C35.7404 24.2772 35.7282 24.3435 35.7159 24.4074C35.7061 24.4639 35.6938 24.5253 35.679 24.5867C35.6668 24.6555 35.652 24.7267 35.6348 24.8004C35.5317 25.2916 35.4039 25.7878 35.259 26.2668C35.2394 26.3331 35.2197 26.4019 35.1952 26.4706C35.178 26.5247 35.1608 26.5787 35.1436 26.6352C35.0404 26.952 34.9274 27.2689 34.8071 27.5759C34.7899 27.6177 34.7727 27.6619 34.7555 27.7061C34.7358 27.7552 34.7162 27.8044 34.6965 27.8535C34.672 27.9124 34.645 27.9787 34.6179 28.0451C34.5983 28.0942 34.5737 28.1507 34.5492 28.2047L34.5393 28.2293C34.505 28.303 34.473 28.3791 34.4386 28.4528C34.4141 28.5093 34.3895 28.5633 34.3625 28.6174C33.9081 29.5998 33.3555 30.5479 32.7242 31.4371L32.6235 31.5771C32.5498 31.6778 32.4786 31.7736 32.4074 31.8669C32.373 31.9136 32.3361 31.9603 32.2993 32.0069C32.2207 32.1101 32.1396 32.2108 32.061 32.3091C32.0144 32.3655 31.9677 32.427 31.9186 32.4834C31.8768 32.535 31.8326 32.5891 31.7859 32.6431L31.7761 32.6529C31.727 32.7094 31.6779 32.7684 31.6263 32.8249C31.5698 32.8887 31.5133 32.955 31.4568 33.0189L33.5741 35.1386C37.0889 31.275 39.0195 26.279 39.0195 21.0252Z" fill="white"/>
<path d="M23.027 32.8692L25.2769 35.1191C26.7113 34.3748 28.0205 33.4194 29.1725 32.2748C32.1912 29.2757 33.8516 25.2819 33.8516 21.0278C33.8516 16.7932 32.201 12.8093 29.2069 9.81513C26.2103 6.81855 22.2288 5.16797 17.9918 5.16797C17.8591 5.16797 17.7265 5.17042 17.5939 5.17288C17.5276 5.17288 17.4637 5.17534 17.3974 5.17779H17.39C17.2918 5.18271 17.196 5.18762 17.0977 5.19253C17.0191 5.19744 16.943 5.20236 16.8644 5.20727C16.8251 5.20972 16.7907 5.21218 16.7588 5.21464L16.7047 5.21955C16.636 5.22446 16.5623 5.23183 16.491 5.2392C16.4272 5.24657 16.3682 5.25148 16.3068 5.25885C16.2626 5.26376 16.2233 5.26867 16.1865 5.27113L16.1251 5.2785C16.1177 5.2785 16.1103 5.28095 16.1054 5.28095C16.0538 5.28587 16.0022 5.29324 15.9507 5.3006C15.7542 5.32517 15.5626 5.35464 15.3735 5.38412C15.3194 5.39394 15.2678 5.40131 15.2163 5.41113L15.1991 5.41359C15.1573 5.42096 15.118 5.42833 15.0787 5.4357L15.0517 5.44061C15.0001 5.45043 14.9485 5.46026 14.8945 5.47008C14.7471 5.4971 14.6071 5.52658 14.4696 5.55851C14.3762 5.57816 14.2829 5.60272 14.1896 5.62482L14.1773 5.62728C14.1527 5.63219 14.1306 5.63711 14.106 5.64447C14.0373 5.66167 13.9759 5.67886 13.912 5.6936C13.858 5.70834 13.8088 5.72062 13.7573 5.73535C13.7131 5.74764 13.6738 5.75746 13.6345 5.76974C13.5976 5.77957 13.5681 5.78939 13.5411 5.79676L13.519 5.80413C13.4797 5.81395 13.4404 5.82623 13.4011 5.83852C13.3348 5.85817 13.2783 5.87536 13.2218 5.89501C13.1751 5.90975 13.1358 5.92203 13.0916 5.93431C12.959 5.97852 12.8264 6.02273 12.6962 6.0694C12.6593 6.08168 12.6274 6.09396 12.593 6.10624L12.5635 6.11607C12.5193 6.13326 12.48 6.14554 12.4407 6.16274C12.372 6.1873 12.313 6.2094 12.2541 6.23397C12.2049 6.25362 12.1632 6.27081 12.119 6.288C12.0379 6.31993 11.9642 6.34941 11.8905 6.38134L11.6695 6.47468C11.6007 6.50415 11.5344 6.53363 11.4681 6.5631C11.4312 6.58029 11.3968 6.59503 11.3625 6.60977L11.3305 6.62451C11.2765 6.64907 11.2225 6.67609 11.1684 6.70065C10.8344 6.8603 10.5052 7.02978 10.1884 7.21154C10.1515 7.23119 10.1221 7.24838 10.0877 7.26803C10.0189 7.30733 9.94768 7.34909 9.88136 7.38839L9.65293 7.52839C9.60626 7.55787 9.55714 7.5898 9.50801 7.61927C9.3459 7.72243 9.18134 7.83051 9.00449 7.95332C8.95782 7.98525 8.91361 8.01718 8.8694 8.04665L8.83992 8.0663C8.79817 8.09578 8.76133 8.1228 8.72448 8.14982L8.70974 8.15964C8.68518 8.17929 8.66062 8.19648 8.6336 8.21613L8.62378 8.2235C8.57711 8.25543 8.5329 8.28982 8.48869 8.32421C8.43711 8.36105 8.39044 8.40035 8.34131 8.43719C8.30693 8.46421 8.27745 8.48632 8.25043 8.50842L8.21605 8.53544C8.16692 8.57474 8.11534 8.61404 8.06622 8.6558C8.00972 8.70001 7.95569 8.74668 7.90165 8.79089C7.80586 8.86949 7.71252 8.94809 7.61673 9.0316C7.58725 9.05616 7.56024 9.08072 7.53076 9.10774L9.65293 11.2299C11.9741 9.2502 14.9191 8.16455 17.9893 8.16455C25.0829 8.16455 30.855 13.9367 30.855 21.0302C30.855 24.4886 29.5016 27.7332 27.0478 30.1673C25.8983 31.3046 24.5179 32.233 23.027 32.8692Z" fill="#C8A35F"/>
<path d="M58.8076 19.7498C58.5986 20.6835 58.2004 21.3951 57.6258 21.8848C57.0382 22.3549 56.3266 22.5965 55.4778 22.5965C54.7857 22.5965 54.1459 22.4202 53.5387 22.0741C52.9511 21.7281 52.5137 21.1927 52.2394 20.4811C51.9391 19.7694 51.802 18.9206 51.802 17.9674C51.802 17.2231 51.926 16.4919 52.1676 15.7998C52.4092 15.1012 52.827 14.5462 53.4016 14.1349C53.9892 13.7366 54.7335 13.5277 55.6019 13.5277C56.3657 13.5277 56.986 13.704 57.4887 14.0827C57.9915 14.4483 58.3701 15.0359 58.6313 15.852L58.6639 15.9369L60.4006 15.5386L60.368 15.4342C60.0415 14.3569 59.467 13.5081 58.6509 12.9009C57.8348 12.3133 56.8293 12.0195 55.6345 12.0195C54.5964 12.0195 53.6236 12.248 52.7356 12.7116C51.8738 13.1947 51.1817 13.8868 50.7117 14.7943C50.2416 15.6953 50 16.7661 50 17.9674C50 19.0773 50.2089 20.135 50.6268 21.0883C51.0446 22.0611 51.6649 22.825 52.481 23.3277C53.2775 23.85 54.3352 24.1112 55.6214 24.1112C56.8554 24.1112 57.9131 23.7651 58.7749 23.1057C59.6433 22.4463 60.2309 21.4604 60.5639 20.1938L60.5965 20.0893L58.8467 19.6584L58.8076 19.7498Z" fill="white"/>
<path d="M74.6926 12.7835C73.8047 12.2612 72.7992 12 71.7089 12C70.0244 12 68.6403 12.555 67.5826 13.6453C66.5249 14.7356 65.9895 16.283 65.9895 18.2025C65.9895 19.2276 66.218 20.1939 66.6816 21.1144C67.1321 22.035 67.8111 22.7597 68.6925 23.3016C69.5739 23.837 70.5859 24.0982 71.6893 24.0982C72.7274 24.0982 73.7002 23.8566 74.5816 23.3669C75.4826 22.8968 76.1747 22.1721 76.6774 21.232C77.1606 20.3114 77.4087 19.2406 77.4087 18.0589C77.4087 16.8967 77.1671 15.8586 76.7166 14.938C76.253 14.0305 75.574 13.2993 74.6926 12.7835ZM74.5033 21.4148C73.772 22.1917 72.8188 22.5965 71.6958 22.5965C70.5859 22.5965 69.6523 22.1982 68.9014 21.4344C68.1702 20.6509 67.7915 19.5801 67.7915 18.2286C67.7915 16.5442 68.1898 15.3167 68.9537 14.6051C69.7175 13.8934 70.6512 13.5278 71.7089 13.5278C72.4728 13.5278 73.1452 13.7171 73.7524 14.0827C74.34 14.4484 74.8101 14.9837 75.1235 15.6627C75.4369 16.3418 75.5936 17.1514 75.5936 18.0719C75.5936 19.5083 75.228 20.6378 74.5033 21.4148Z" fill="white"/>
<path d="M92.5688 12.5029L89.7744 20.4617C89.5459 21.1015 89.3761 21.6043 89.2521 22.0025L88.782 20.6184L85.9941 12.3984H85.8048V16.6488L88.3903 24.1049H89.9311L92.5688 16.6619V12.5029Z" fill="white"/>
<path d="M85.178 12.3984H83.4805V24.1049H85.178V12.3984Z" fill="white"/>
<path d="M94.8736 12.3984H93.1891V24.1049H94.8736V12.3984Z" fill="white"/>
<path d="M102.695 12.3984H100.946V24.1049H102.695V12.3984Z" fill="white"/>
<path d="M109.733 14.22C109.472 13.7369 109.159 13.3386 108.748 13.0774C108.349 12.7967 107.847 12.6074 107.272 12.5225C106.854 12.4376 106.247 12.3984 105.47 12.3984H103.322V13.9589H105.594C106.286 13.9589 106.756 13.9915 107.017 14.0633C107.396 14.1678 107.709 14.3767 107.938 14.7032C108.18 15.0296 108.284 15.4148 108.284 15.8849C108.284 16.5117 108.095 16.9948 107.696 17.3409C107.298 17.6869 106.606 17.8632 105.633 17.8632H103.329V19.4432H105.62C107.285 19.4432 108.48 19.0776 109.12 18.3855C109.779 17.6934 110.106 16.8447 110.106 15.8392C110.099 15.2451 109.975 14.7032 109.733 14.22Z" fill="white"/>
<path d="M120.741 12.3983L116.165 24.1047H118.019L118.541 22.7337H118.522L119.84 19.1819L120.121 18.4507L121.094 15.8652H121.114C121.322 15.2906 121.492 14.703 121.636 14.1285C121.812 14.6834 122.054 15.3625 122.347 16.1198L123.529 19.1688H120.532L119.997 20.6052H124.091L125.462 24.0917H127.453L122.563 12.3853H120.741V12.3983Z" fill="white"/>
<path d="M134.968 12.3984H133.336V24.1049H134.968V12.3984Z" fill="white"/>
<path d="M141.066 21.193L141.033 21.1407V24.1049H142.764V12.3984H141.066V21.193Z" fill="white"/>
<path d="M135.588 16.1458L140.407 23.2167V20.2199L135.588 13.1621V16.1458Z" fill="white"/>
<path d="M157.917 12.3984L155.613 15.8327C155.162 16.5117 154.764 17.1515 154.418 17.7065V17.6869L153.445 19.1624V24.1049H155.214V19.1624L159.98 12.3984H157.917V12.3984Z" fill="white"/>
<path d="M154.052 17.0797L153.327 15.9175L150.983 12.3984H148.835L153.066 18.6075L154.052 17.0797Z" fill="white"/>
<path d="M50 29.9417H51.1622V33.611H51.8085V29.9417H52.9707V29.3672H50V29.9417Z" fill="white"/>
<path d="M57.6585 29.3672L56.1177 33.611H56.7967L57.1231 32.6643H58.7358L59.0622 33.611H59.7413L58.2004 29.3672H57.6585ZM57.3059 32.0898L57.9197 30.2355H57.9327L58.5465 32.0898H57.3059Z" fill="white"/>
<path d="M65.0362 31.8806H65.898V32.1026C65.8915 32.3703 65.8131 32.5858 65.6499 32.749C65.4867 32.9188 65.2778 33.0036 65.0297 33.0036C64.8795 33.0036 64.7489 32.971 64.6379 32.9057C64.5269 32.8535 64.4355 32.7816 64.3702 32.6902C64.2854 32.5988 64.2331 32.4813 64.207 32.3311C64.1744 32.181 64.1613 31.9002 64.1613 31.4824C64.1613 31.0645 64.1744 30.7838 64.207 30.6271C64.2331 30.4834 64.2919 30.3659 64.3702 30.2745C64.4355 30.1896 64.5269 30.1113 64.6379 30.0591C64.7489 30.0003 64.8795 29.9742 65.0297 29.9677C65.2321 29.9742 65.4084 30.0329 65.552 30.1439C65.6891 30.2615 65.787 30.4116 65.8393 30.5814H66.5183C66.453 30.2288 66.2898 29.9285 66.0286 29.6869C65.7674 29.4453 65.4345 29.3278 65.0297 29.3213C64.6967 29.3278 64.4159 29.4062 64.194 29.5629C63.9655 29.713 63.8022 29.8893 63.6978 30.0852C63.6325 30.1896 63.5868 30.3202 63.5541 30.49C63.528 30.6597 63.5084 30.9862 63.5084 31.4824C63.5084 31.9655 63.5215 32.2985 63.5541 32.4683C63.5672 32.5597 63.5868 32.638 63.6129 32.6968C63.639 32.7555 63.6651 32.8143 63.6978 32.8796C63.8022 33.0754 63.9655 33.2452 64.194 33.3954C64.4159 33.5521 64.6967 33.6304 65.0297 33.6369C65.4606 33.6304 65.8197 33.4802 66.107 33.1995C66.3877 32.9122 66.5379 32.5597 66.5444 32.1287V31.2669H65.0362V31.8806V31.8806Z" fill="white"/>
<path d="M71.5129 29.3672H70.873V33.611H73.5826V33.0038H71.5129V29.3672Z" fill="white"/>
<path d="M78.4075 29.3672H77.7677V33.611H78.4075V29.3672Z" fill="white"/>
<path d="M85.4131 32.3836H85.4066L83.4805 29.3672H82.8799V33.611H83.5197V30.5946H83.5328L85.4523 33.611H86.0595V29.3672H85.4131V32.3836Z" fill="white"/>
<path d="M90.5317 33.611H93.2413V33.0038H91.1781V31.7568H92.9409V31.1888H91.1781V29.9744H93.2413V29.3672H90.5317V33.611Z" fill="white"/>
<path d="M103.805 31.8806H104.667V32.1026C104.66 32.3703 104.582 32.5858 104.419 32.749C104.256 32.9188 104.047 33.0036 103.799 33.0036C103.648 33.0036 103.518 32.971 103.407 32.9057C103.296 32.8535 103.204 32.7816 103.139 32.6902C103.054 32.5988 103.002 32.4813 102.976 32.3311C102.943 32.181 102.93 31.9002 102.93 31.4824C102.93 31.0645 102.943 30.7838 102.976 30.6271C103.002 30.4834 103.061 30.3659 103.139 30.2745C103.204 30.1896 103.296 30.1113 103.407 30.0591C103.518 30.0003 103.648 29.9742 103.799 29.9677C104.008 29.9742 104.177 30.0329 104.321 30.1439C104.458 30.2615 104.556 30.4116 104.608 30.5814H105.287C105.222 30.2288 105.059 29.9285 104.798 29.6869C104.543 29.4453 104.203 29.3278 103.799 29.3213C103.466 29.3278 103.185 29.4062 102.963 29.5629C102.734 29.713 102.571 29.8893 102.467 30.0852C102.401 30.1896 102.356 30.3202 102.323 30.49C102.297 30.6597 102.277 30.9862 102.277 31.4824C102.277 31.9655 102.29 32.2985 102.323 32.4683C102.336 32.5597 102.356 32.638 102.382 32.6968C102.408 32.7555 102.434 32.8143 102.467 32.8796C102.571 33.0754 102.734 33.2452 102.963 33.3954C103.185 33.5521 103.466 33.6304 103.799 33.6369C104.23 33.6304 104.589 33.4802 104.876 33.1995C105.157 32.9122 105.307 32.5597 105.313 32.1287V31.2669H103.805V31.8806Z" fill="white"/>
<path d="M112.339 30.092C112.241 29.8961 112.077 29.7199 111.855 29.5697C111.627 29.413 111.346 29.3347 111.013 29.3281C110.68 29.3347 110.399 29.413 110.177 29.5697C109.949 29.7199 109.786 29.8961 109.681 30.092C109.616 30.1965 109.57 30.3271 109.538 30.4968C109.512 30.6666 109.492 30.993 109.492 31.4892C109.492 31.9724 109.505 32.3053 109.538 32.4751C109.551 32.5665 109.57 32.6448 109.596 32.7036C109.623 32.7624 109.649 32.8211 109.681 32.8864C109.786 33.0823 109.949 33.252 110.177 33.4022C110.399 33.5589 110.68 33.6372 111.013 33.6438C111.353 33.6372 111.633 33.5524 111.855 33.4022C112.077 33.252 112.241 33.0823 112.339 32.8864C112.41 32.7819 112.463 32.6448 112.489 32.4751C112.515 32.3053 112.528 31.9789 112.528 31.4892C112.528 30.9995 112.515 30.6666 112.489 30.4968C112.463 30.3336 112.41 30.1965 112.339 30.092ZM111.836 32.338C111.803 32.4881 111.744 32.6057 111.666 32.6971C111.601 32.7819 111.516 32.8538 111.411 32.9125C111.3 32.9778 111.163 33.0105 111.013 33.0105C110.863 33.0105 110.732 32.9778 110.621 32.9125C110.51 32.8603 110.419 32.7885 110.354 32.6971C110.269 32.6057 110.217 32.4881 110.191 32.338C110.158 32.1878 110.145 31.9071 110.145 31.4892C110.145 31.0714 110.158 30.7906 110.191 30.6339C110.217 30.4903 110.275 30.3728 110.354 30.2814C110.419 30.1965 110.51 30.1181 110.621 30.0659C110.732 30.0071 110.863 29.981 111.013 29.9745C111.163 29.981 111.3 30.0071 111.411 30.0659C111.516 30.1247 111.601 30.1965 111.666 30.2814C111.751 30.3728 111.81 30.4903 111.836 30.6339C111.862 30.7841 111.882 31.0714 111.882 31.4892C111.882 31.9071 111.868 32.1878 111.836 32.338Z" fill="white"/>
<path d="M116.85 33.611H119.56V33.0038H117.496V31.7568H119.259V31.1888H117.496V29.9744H119.56V29.3672H116.85V33.611Z" fill="white"/>
<path d="M125.325 31.1887C125.122 31.1626 124.966 31.143 124.848 31.1234C124.639 31.0842 124.489 31.0124 124.391 30.9145C124.293 30.8165 124.247 30.7056 124.247 30.5815C124.254 30.3791 124.319 30.2224 124.463 30.1245C124.593 30.0265 124.763 29.9743 124.959 29.9743C125.344 29.9808 125.69 30.0918 126.01 30.3008L126.369 29.7719C125.978 29.4912 125.521 29.341 124.992 29.3345C124.554 29.341 124.215 29.452 123.973 29.6805C123.725 29.909 123.601 30.2094 123.601 30.575C123.601 30.8818 123.699 31.143 123.895 31.3585C124.084 31.5674 124.365 31.7045 124.731 31.7632C124.933 31.7894 125.122 31.8155 125.292 31.8416C125.664 31.9069 125.847 32.0962 125.847 32.4096C125.84 32.7948 125.56 32.9907 125.011 32.9972C124.548 32.9907 124.143 32.8536 123.803 32.5728L123.379 33.056C123.83 33.4412 124.371 33.6371 124.998 33.6371C125.971 33.624 126.467 33.2127 126.487 32.4031C126.487 32.1028 126.395 31.8416 126.206 31.6131C126.017 31.3911 125.723 31.2475 125.325 31.1887Z" fill="white"/>
<path d="M138.069 31.1888H136.391V29.3672H135.745V33.611H136.391V31.7568H138.069V33.611H138.716V29.3672H138.069V31.1888Z" fill="white"/>
<path d="M143.188 33.611H145.898V33.0038H143.828V31.7568H145.591V31.1888H143.828V29.9744H145.898V29.3672H143.188V33.611Z" fill="white"/>
<path d="M153.02 30.5486C153.007 30.1569 152.87 29.8566 152.596 29.6411C152.374 29.4518 152.087 29.3604 151.734 29.3604H150.076V33.6042H150.722V31.7891H151.545L152.42 33.6042H153.184L152.198 31.7238C152.74 31.5214 153.014 31.1297 153.02 30.5486ZM150.722 31.2276V29.9414H151.728C151.93 29.9414 152.093 29.9871 152.198 30.072C152.335 30.1699 152.407 30.3332 152.413 30.5552C152.413 30.738 152.355 30.8947 152.237 31.0187C152.119 31.1558 151.937 31.2276 151.695 31.2276H150.722Z" fill="white"/>
<path d="M157.291 33.611H160V33.0038H157.93V31.7568H159.693V31.1888H157.93V29.9744H160V29.3672H157.291V33.611Z" fill="white"/>
</svg>
